<svg width="64" height="64" viewBox="0 0 64 64" fill="none" xmlns="http://www.w3.org/2000/svg">
<path d="M32 55C30.2175 55 28.7723 53.5609 28.7723 51.7857V38.0672L16.8421 44.9265C15.2983 45.8142 13.3242 45.2875 12.433 43.75C11.5417 42.2127 12.0706 40.2468 13.6144 39.3592L25.5446 32.5L13.6144 25.6408C12.0706 24.7532 11.5417 22.7875 12.433 21.25C13.3242 19.7127 15.2983 19.186 16.8421 20.0735L28.7723 26.9328V13.2143C28.7723 11.4391 30.2175 10 32 10C33.7826 10 35.2277 11.4391 35.2277 13.2143V26.9326L47.1578 20.0735C48.7017 19.186 50.6757 19.7127 51.567 21.25C52.4584 22.7875 51.9294 24.7532 50.3856 25.6409L38.4555 32.5L50.3856 39.3592C51.9294 40.2468 52.4584 42.2127 51.567 43.75C50.6757 45.2875 48.7017 45.8142 47.1578 44.9265L35.2277 38.0674V51.7857C35.2277 53.5609 33.7826 55 32 55Z" fill="#151618"/>
</svg>
