<svg width="20" height="20" viewBox="0 0 20 20" fill="none" xmlns="http://www.w3.org/2000/svg">
<path d="M11.4755 15.8156C10.4286 16.0813 9.32935 16.0595 8.29379 15.7525C7.25822 15.4455 6.32474 14.8646 5.59185 14.0711C5.13357 13.575 4.76436 13.0073 4.49723 12.3931L7.12294 13.1959C7.38701 13.2766 7.66654 13.128 7.74727 12.8639C7.82801 12.5998 7.67938 12.3203 7.41531 12.2396L3.59009 11.0701C3.51159 11.0461 3.43172 11.0423 3.35612 11.0559C3.16325 11.0888 2.99953 11.2339 2.95277 11.4365L2.05296 15.3339C1.99085 15.603 2.15861 15.8715 2.42767 15.9336C2.69674 15.9957 2.96522 15.828 3.02733 15.5589L3.63686 12.9187C3.94327 13.5867 4.35429 14.2051 4.85728 14.7497C5.71231 15.6753 6.80137 16.353 8.00953 16.7112C9.21769 17.0694 10.5001 17.0949 11.7215 16.7848C12.9218 16.4802 14.0193 15.8627 14.9026 14.9958C15.0136 14.9041 15.0844 14.7654 15.0844 14.6101C15.0844 14.3339 14.8606 14.1101 14.5844 14.1101C14.4527 14.1101 14.3329 14.161 14.2436 14.2443L14.242 14.2426C13.4782 15.0064 12.5224 15.5498 11.4755 15.8156Z" fill="white"/>
<path d="M17.5612 4.06632C17.8302 4.12844 17.998 4.39691 17.9359 4.66598L17.0361 8.56346C16.9892 8.76657 16.8247 8.91196 16.6311 8.94431C16.556 8.95751 16.4767 8.95367 16.3988 8.92983L12.5735 7.76035C12.3095 7.67961 12.1608 7.40009 12.2416 7.13601C12.3223 6.87193 12.6018 6.72331 12.8659 6.80404L15.4972 7.60851C15.2048 6.93578 14.7905 6.31981 14.2724 5.79297C13.5299 5.03799 12.6009 4.49294 11.5796 4.21319C10.5583 3.93343 9.48122 3.92893 8.45765 4.20014C7.44897 4.46741 6.5277 4.99303 5.78457 5.72481C5.69286 5.83204 5.55658 5.9 5.40443 5.9C5.12828 5.9 4.90443 5.67614 4.90443 5.4C4.90443 5.26448 4.95834 5.14155 5.0459 5.05149L5.04466 5.05025C5.9182 4.17671 7.00736 3.54991 8.20152 3.2335C9.39568 2.91709 10.6523 2.92234 11.8438 3.24872C13.0353 3.5751 14.1191 4.21099 14.9854 5.0918C15.5548 5.67082 16.0168 6.34214 16.3536 7.07416L16.9615 4.44103C17.0236 4.17196 17.2921 4.0042 17.5612 4.06632Z" fill="white"/>
</svg>
